PathFileType	4	(X/Y/Z)	C:\Users\Basilio\Documents\Thesis Gigler\squatting_fais\c3dfiles\058\SLS_front_pre4\markers_experimental.trc
DataRate	CameraRate	NumFrames	NumMarkers	Units	OrigDataRate	OrigDataStartFrame	OrigNumFrames
200.000000	200.000000	4	61	mm	200.000000	641	1282
Frame#	Time	FHD			LBHD			RBHD			C7			T10			CLAV			LSHO			LUUPA			LMUPA			LDUPA			LLEP			LRAD			LUL			LRFIN			RSHO			RUPA1			RMUPA			RDUPA			RLEP			RMEP			RRAD			RUL			RUFIN			LASI			RASI			USACR			LSACR			RSACR			LTHI1			LTHI2			LTHI3			LTHI4			LLFC			LMFC			LTIB1			LTIB2			LTIB3			LTIB4			LLMAL			LMMAL			LHEE			LMT1			LMT2			LMT5			RTHI			RTHI2			RTHI3			RTHI4			RLFC			RMFC			RTIB1			RTIB2			RTIB3			RTIB4			RLMAL			RMMAL			RHEE			RMT1			RMT2			RMT5			LMEP			
		X1	Y1	Z1	X2	Y2	Z2	X3	Y3	Z3	X4	Y4	Z4	X5	Y5	Z5	X6	Y6	Z6	X7	Y7	Z7	X8	Y8	Z8	X9	Y9	Z9	X10	Y10	Z10	X11	Y11	Z11	X12	Y12	Z12	X13	Y13	Z13	X14	Y14	Z14	X15	Y15	Z15	X16	Y16	Z16	X17	Y17	Z17	X18	Y18	Z18	X19	Y19	Z19	X20	Y20	Z20	X21	Y21	Z21	X22	Y22	Z22	X23	Y23	Z23	X24	Y24	Z24	X25	Y25	Z25	X26	Y26	Z26	X27	Y27	Z27	X28	Y28	Z28	X29	Y29	Z29	X30	Y30	Z30	X31	Y31	Z31	X32	Y32	Z32	X33	Y33	Z33	X34	Y34	Z34	X35	Y35	Z35	X36	Y36	Z36	X37	Y37	Z37	X38	Y38	Z38	X39	Y39	Z39	X40	Y40	Z40	X41	Y41	Z41	X42	Y42	Z42	X43	Y43	Z43	X44	Y44	Z44	X45	Y45	Z45	X46	Y46	Z46	X47	Y47	Z47	X48	Y48	Z48	X49	Y49	Z49	X50	Y50	Z50	X51	Y51	Z51	X52	Y52	Z52	X53	Y53	Z53	X54	Y54	Z54	X55	Y55	Z55	X56	Y56	Z56	X57	Y57	Z57	X58	Y58	Z58	X59	Y59	Z59	X60	Y60	Z60	X61	Y61	Z61	

642	3.205	-290.8467712402344	1612.000732421875	-628.9005737304689	-439.3289184570314	1548.250244140625	-708.7670288085939	-273.3013000488282	1621.332641601563	-769.764831542969	-455.5556945800782	1426.38134765625	-725.5506591796876	-556.5662231445314	1139.017456054688	-717.7037353515626	-306.4391174316407	1352.12548828125	-702.9194946289064	-303.9565124511719	1411.310668945313	-852.2569580078127	-156.5167388916016	1353.985961914063	-963.4539184570315	-131.8729705810547	1389.961791992188	-936.7088012695315	-87.14151763916017	1354.34326171875	-955.6416015625002	-11.36985588073731	1358.828125	-939.5328369140627	254.1979980468751	1370.71044921875	-838.0269165039065	257.0717163085938	1397.026245117188	-914.8648681640627	354.0921630859376	1398.759521484375	-836.2688598632815	-330.1722106933594	1418.141723632813	-559.8000488281251	-184.3310241699219	1341.492553710938	-441.6417236328126	-160.9066009521485	1379.492919921875	-465.6856079101564	-115.4822082519532	1351.250610351563	-439.8510742187501	-47.02622222900391	1345.073608398438	-445.1448974609376	-35.17362213134766	1287.457153320313	-493.9402160644532	226.6824340820313	1385.750366210938	-515.1398315429689	220.176986694336	1396.661987304688	-433.2253723144532	315.0523071289063	1415.551513671875	-497.7075500488282	-409.676239013672	940.5747070312502	-867.0376586914065	-400.1306457519532	916.766540527344	-632.3005371093751	-595.0270385742189	1000.201354980469	-723.2131958007814	-605.5370483398439	971.2124633789065	-752.4506835937501	-600.8469848632814	965.6773681640627	-694.9430541992189	-301.5072326660157	741.3763427734376	-943.5762329101565	-224.6441192626954	706.3637084960939	-934.4044189453127	-196.1650848388672	733.3971557617189	-903.1718750000002	-208.4599914550782	648.1475830078126	-928.1587524414065	-135.3534698486328	581.5073852539064	-916.7729492187502	-124.8639831542969	578.9531250000001	-789.094177246094	-2.371311187744141	523.3601074218751	-876.0104980468752	-8.531191825866701	466.5940246582032	-938.101257324219	23.15840148925782	484.1910095214845	-911.5654296875002	80.65068817138673	426.8277282714845	-888.2725830078127	182.5323028564453	246.1784820556641	-912.6948852539065	182.9639434814453	269.2178649902344	-821.3734130859377	166.8631286621094	172.728515625	-864.7725830078127	318.8381042480469	333.8306274414063	-833.9595336914065	321.2823181152344	341.9031677246094	-880.095153808594	308.7971191406251	292.5349121093751	-935.428649902344	-385.9104919433595	712.7521362304689	-574.6193847656251	-321.1252136230469	694.1671752929689	-578.9441528320314	-295.3891601562501	713.7842407226564	-583.0175781250001	-295.8003540039063	617.6390991210939	-603.4630126953126	-198.376449584961	491.1587219238282	-638.1354370117189	-178.0561828613282	502.4309997558595	-770.881042480469	-216.6141052246094	315.2808227539063	-745.9769897460939	-273.7233886718751	249.6864624023438	-677.7331542968751	-249.3441314697266	235.6002502441407	-716.8874511718751	-279.7481079101563	204.2476806640626	-751.8921508789064	-370.5472106933594	119.3418807983399	-705.0948486328126	-341.0921630859376	138.5391387939453	-794.7549438476565	-443.7960510253907	105.5851287841797	-767.2063598632814	-238.069320678711	56.74580001831056	-774.6242675781252	-230.8439331054688	63.03691864013673	-721.8462524414064	-282.2432556152344	35.8938217163086	-670.2354736328126	-6.694903850555422	1301.276000976563	-907.5400390625002	
643	3.21	-290.6142578125001	1611.5185546875	-628.9525146484376	-439.2176818847657	1547.669677734375	-708.8704223632814	-273.2357177734376	1620.552612304688	-769.9009399414065	-455.4092712402345	1425.820922851563	-725.7733154296876	-556.7293090820314	1138.676391601563	-717.6680297851564	-306.2318725585938	1351.528076171875	-702.9406738281251	-303.7311096191407	1410.804321289063	-852.2172851562502	-156.3391571044922	1353.382202148438	-963.4741210937502	-131.66552734375	1389.194458007813	-936.7317504882815	-86.7604446411133	1353.665649414063	-955.6953125000002	-11.3015251159668	1358.2255859375	-939.3636474609377	254.3543548583985	1369.972412109375	-837.9114379882815	257.6420593261719	1396.27490234375	-914.785583496094	353.5181884765626	1397.503173828125	-836.3891601562502	-329.9392089843751	1417.626220703125	-559.8604736328126	-184.1626892089844	1341.079833984375	-441.7962341308595	-160.8047637939453	1378.982299804688	-465.7335510253907	-115.4999771118164	1350.849731445313	-439.8262329101564	-47.0063591003418	1344.502807617188	-445.3011169433595	-34.93483352661134	1286.866333007813	-493.9453125000001	226.5819396972657	1384.994262695313	-515.0886230468751	220.5128784179688	1396.119873046875	-433.3621215820314	315.0609741210938	1415.067626953125	-497.6849670410157	-410.132049560547	940.133728027344	-866.9063110351565	-400.3310852050782	916.301452636719	-632.3402099609376	-595.4448852539064	999.9490966796877	-723.0644531250001	-605.8669433593751	970.7561035156252	-752.3754272460939	-601.1049194335939	965.3616333007815	-694.8461303710939	-301.8282470703126	740.9185180664064	-943.453308105469	-224.9653625488282	706.0017089843751	-934.3804321289065	-196.638168334961	733.0927734375001	-902.937927246094	-208.7804718017579	647.7634887695314	-927.983093261719	-135.7102813720703	581.0169067382814	-916.6409301757815	-124.9327926635742	578.8229980468751	-788.901794433594	-2.623333930969239	522.8090209960939	-875.9575195312502	-8.981991767883303	466.1889038085939	-937.9212646484377	22.55217742919922	483.7428588867189	-911.3878173828127	80.29148101806642	426.2393188476564	-888.059753417969	182.1384429931641	245.7985382080079	-912.605163574219	182.4860076904297	268.9019165039063	-821.3047485351565	166.3694610595703	172.2501525878907	-864.5332031250002	317.6076049804688	332.2691650390626	-833.7606201171877	320.7391967773438	340.5386352539063	-879.9395141601565	308.2558288574219	291.9361267089844	-935.404724121094	-386.1145629882814	712.5148925781251	-574.7031860351564	-321.2849731445313	694.2645874023439	-578.8844604492189	-295.5518493652344	713.6461181640626	-583.1403808593751	-295.8810119628907	617.5274047851564	-603.5753173828126	-198.1917572021485	491.3134765625001	-638.3668212890626	-178.3014373779297	502.4920654296876	-771.0338134765627	-216.7574005126954	315.2870178222657	-746.1884765625001	-273.7179870605469	249.6911163330079	-677.8953857421876	-249.3246612548829	235.5333404541016	-717.1145629882814	-279.7462158203126	204.3174591064454	-752.0900268554689	-370.5372314453126	119.3602294921875	-705.1793823242189	-341.1709594726563	138.4555053710938	-794.9595947265627	-443.7995910644532	105.5507888793946	-767.2568969726564	-237.9752044677735	56.7356643676758	-774.6591796875002	-230.8905334472657	62.97657012939455	-721.9890136718751	-282.3149414062501	35.92085647583009	-670.2649536132814	-6.560879230499269	1300.641479492188	-907.476501464844	
644	3.215	-290.5129089355469	1610.865478515625	-629.1505737304689	-438.7603149414064	1547.002075195313	-709.0708007812501	-273.0484008789063	1619.97998046875	-770.000671386719	-455.2129516601564	1425.371215820313	-725.9525146484376	-557.0145263671876	1138.375122070313	-717.6600341796876	-306.3144531250001	1350.88134765625	-703.0090942382814	-303.6330871582032	1410.448608398438	-852.2941894531252	-155.8491668701172	1352.835815429688	-963.501403808594	-131.2146301269532	1388.69921875	-936.7210083007815	-86.28663635253908	1352.915283203125	-955.692810058594	-10.91142177581787	1357.7353515625	-939.272155761719	254.6045989990235	1369.2177734375	-837.7788696289065	257.8526000976563	1395.437866210938	-914.558532714844	353.7951660156251	1396.610717773438	-836.1215820312502	-330.0747985839844	1417.117065429688	-559.9268188476564	-184.1849670410157	1340.63525390625	-441.8399963378907	-160.9486389160157	1378.4189453125	-465.9116821289064	-115.4371109008789	1350.395385742188	-439.8139038085939	-47.00199890136719	1344.124633789063	-445.3485107421876	-34.7134132385254	1286.346801757813	-494.0256958007814	226.9300689697266	1384.34716796875	-515.1979980468751	220.2800903320313	1395.030395507813	-433.3499145507814	315.5278625488282	1414.341430664063	-497.6847534179689	-410.5640869140626	939.7083740234377	-866.7916259765627	-400.8257446289064	915.7418212890627	-632.2988281250001	-595.6221923828126	999.583190917969	-723.0046386718751	-606.2802124023439	970.360290527344	-752.2679443359376	-601.4027709960939	965.1060791015627	-694.7630615234376	-302.1352844238282	740.3952636718751	-943.333435058594	-225.5127410888672	705.6702880859376	-934.1378173828127	-196.8156433105469	732.8013305664064	-902.7534179687502	-209.2397918701172	647.3168945312501	-927.7754516601565	-136.2813262939453	580.4762573242189	-916.4893798828127	-125.5506286621094	578.1671142578126	-788.7998657226565	-3.047751903533936	522.3795776367189	-875.7843017578127	-9.400138854980471	465.6600341796876	-937.8115234375002	22.05938339233399	482.7923583984376	-911.2204589843752	80.00815582275392	425.6997985839845	-887.8377075195315	181.5998077392578	245.2662048339844	-912.530700683594	182.2712554931641	268.4630432128907	-821.3015747070315	165.6978759765625	171.5738372802735	-864.1473388671877	317.0997009277344	331.2010192871094	-833.9671020507815	320.5720520019532	340.2419738769532	-879.999938964844	307.7806701660157	291.3647155761719	-935.3466796875002	-386.2334289550782	712.4953613281251	-574.7117309570314	-321.5421447753907	694.2990112304689	-578.8074951171876	-295.6267395019532	713.6232299804689	-583.1711425781251	-295.8905029296876	617.5407714843751	-603.6328125000001	-198.2386932373047	491.3626708984376	-638.5401000976564	-178.5884552001953	502.5760803222657	-771.1715087890627	-216.7866973876954	315.3023376464844	-746.3574829101564	-273.7249755859376	249.6711883544922	-677.9873657226564	-249.2737426757813	235.6143798828126	-717.3977661132814	-279.7249755859376	204.3385162353516	-752.2200317382814	-370.4785156250001	119.4131622314453	-705.2564086914064	-341.2173767089844	138.402084350586	-795.1892089843752	-443.7877502441407	105.5728607177735	-767.2745971679689	-237.9154663085938	56.69995880126955	-774.730651855469	-230.8741149902344	63.02386474609376	-721.9838256835939	-282.2257690429688	36.03770065307618	-670.2651367187501	-6.183315753936769	1299.606079101563	-907.5437622070315	
645	3.22	-290.3228454589844	1610.6044921875	-628.9841918945314	-438.8257141113282	1546.33251953125	-709.0673217773439	-272.7243347167969	1619.411499023438	-770.098815917969	-454.914520263672	1425.015014648438	-726.1523437500001	-557.2214355468751	1138.033935546875	-717.6079101562501	-306.1959838867188	1350.337280273438	-703.0264282226564	-303.0072021484376	1409.823608398438	-852.2558593750002	-155.6819915771485	1352.373291015625	-963.461608886719	-130.8076782226563	1388.252807617188	-936.799011230469	-85.95410919189455	1352.398681640625	-955.5949707031252	-10.57231044769287	1357.029663085938	-939.3137817382815	254.8312225341797	1368.36279296875	-837.695739746094	258.0935974121094	1394.765991210938	-914.4560546875002	354.1529235839844	1395.750854492188	-835.8677368164065	-330.0462341308594	1416.613647460938	-560.0407104492189	-184.3273010253907	1340.028564453125	-441.8927001953126	-160.7434997558594	1377.798828125	-466.1264648437501	-115.4587783813477	1350.082641601563	-439.8543701171876	-46.95967864990235	1343.673828125	-445.3904113769532	-34.82775878906251	1285.845336914063	-494.030975341797	226.9739685058594	1383.678955078125	-515.1038208007814	220.4683837890626	1394.51904296875	-433.3876342773439	316.0973510742188	1413.4736328125	-497.287322998047	-410.6880493164064	939.3050537109377	-866.753112792969	-401.0078735351564	915.552673339844	-632.1832275390626	-595.9540405273439	999.1822509765627	-722.9398803710939	-606.6904907226564	970.0010986328127	-752.1720581054689	-601.9075927734376	964.8775634765627	-694.6621093750001	-302.4997863769532	739.8808593750001	-943.2276611328127	-226.3858184814454	704.5424804687501	-933.401062011719	-197.4436950683594	732.1094360351564	-902.5686645507815	-209.8417053222657	646.8016357421876	-927.7211914062502	-136.8584136962891	579.9062500000001	-916.4587402343752	-125.566276550293	577.9412841796876	-788.7151489257815	-3.276835441589356	522.0040283203126	-875.7753906250002	-9.934659004211428	464.876190185547	-937.6785888671877	21.92159652709961	482.4327697753907	-911.2082519531252	79.41204071044923	425.2037048339845	-887.752380371094	181.1326904296875	244.5077667236329	-912.3565673828127	181.7419891357422	267.8545837402344	-821.1109008789065	165.3040313720703	171.0406494140625	-863.9005126953127	317.2004699707032	331.1379699707032	-833.858337402344	320.1088562011719	339.7673339843751	-879.9254150390627	307.1989746093751	290.6382751464844	-935.217224121094	-386.3597412109376	712.3502197265626	-574.7502441406251	-321.6981506347657	694.1789550781251	-578.7839355468751	-295.6981201171876	713.6826171875001	-583.2233276367189	-295.9375305175782	617.4809570312501	-603.6118774414064	-198.2799530029297	491.3903198242189	-638.7130737304689	-178.8619995117188	502.5816650390626	-771.2885742187502	-216.9093627929688	315.3323364257813	-746.5156250000001	-273.7351989746094	249.660873413086	-678.1497192382814	-249.1142120361329	235.9058227539063	-717.5557250976564	-279.6608886718751	204.3863830566407	-752.3955688476564	-370.4547424316407	119.4142990112305	-705.2792968750001	-341.1811523437501	138.3360290527344	-795.2729492187502	-443.8074340820314	105.5572738647461	-767.3446044921876	-237.9486541748047	56.61442184448244	-774.8649902343752	-230.9109802246094	63.01791381835939	-722.0360107421876	-282.1626892089844	36.09717559814454	-670.3276977539064	-5.76998519897461	1298.817016601563	-907.5579833984377	
